<?xml version="1.0" encoding="UTF-8"?>
<svg width="133px" height="34px" viewBox="0 0 133 34" version="1.1" xmlns="http://www.w3.org/2000/svg" xmlns:xlink="http://www.w3.org/1999/xlink">
    <!-- Generator: Sketch 52.2 (67145) - http://www.bohemiancoding.com/sketch -->
    <title>Group</title>
    <desc>Created with Sketch.</desc>
    <g id="Page-2" stroke="none" stroke-width="1" fill="none" fill-rule="evenodd">
        <g id="Artboard-Copy" transform="translate(-31.000000, -19.000000)">
            <g id="Group" transform="translate(31.000000, 19.000000)">
                <path d="M56.8623188,27.389547 L56.8623188,6.08919861 L62.663285,6.08919861 L67.4095301,15.592431 L69.4530523,20.3768169 L69.5848924,20.3768169 C69.518972,19.8088048 69.442066,19.1861855 69.3541722,18.5089402 C69.2662783,17.831695 69.1893723,17.1380752 69.1234519,16.42806 C69.0575315,15.7180449 68.9971054,15.0080404 68.9421717,14.2980252 C68.8872381,13.58801 68.8597716,12.9053134 68.8597716,12.2499148 L68.8597716,6.08919861 L74.2652174,6.08919861 L74.2652174,27.389547 L68.4642512,27.389547 L63.7180061,17.8535449 L61.674484,13.1019287 L61.5426438,13.1019287 C61.6744846,14.3253395 61.8282966,15.6579633 62.0040843,17.0998403 C62.1798721,18.5417172 62.2677646,19.9180336 62.2677646,21.2288309 L62.2677646,27.389547 L56.8623188,27.389547 Z" id="Path-Copy-13" fill="#FFFFFF"></path>
                <polygon id="Path-Copy-14" fill="#FFFFFF" points="76.4405797 27.389547 76.4405797 6.08919861 81.8113307 6.08919861 81.8113307 22.6707006 89.4927536 22.6707006 89.4927536 27.389547"></polygon>
                <path d="M90.9429952,27.389547 L90.9429952,6.08919861 L98.5062071,6.08919861 C99.6290424,6.08919861 100.698898,6.20389164 101.715805,6.43328116 C102.732713,6.66267067 103.622494,7.05590394 104.385174,7.61299276 C105.147855,8.17008158 105.756931,8.90193239 106.212421,9.80856714 C106.667911,10.7152019 106.895652,11.8348244 106.895652,13.1674682 C106.895652,14.4782655 106.667911,15.6033495 106.212421,16.5427542 C105.756931,17.4821589 105.147855,18.2522407 104.385174,18.8530228 C103.622494,19.4538048 102.743306,19.9016538 101.747584,20.1965832 C100.751862,20.4915126 99.7137841,20.6389751 98.6333199,20.6389751 L96.4088458,20.6389751 L96.4088458,27.389547 L90.9429952,27.389547 Z M96.7439614,16.1351916 L98.6865689,16.1351916 C99.7518751,16.1351916 100.540399,15.861894 101.052163,15.3152905 C101.563928,14.768687 101.819807,13.9943437 101.819807,12.9922373 C101.819807,11.9901309 101.537818,11.2841119 100.973833,10.8741593 C100.409847,10.4642067 99.6056572,10.2592334 98.5612393,10.2592334 L96.7439614,10.2592334 L96.7439614,16.1351916 Z" id="Combined-Shape" fill="#FFFFFF"></path>
                <path d="M117.097826,10.2 C116.108353,10.2 115.298795,9.87308019 114.66913,9.21923077 C114.039465,8.56538135 113.724638,7.75897915 113.724638,6.8 C113.724638,5.84102085 114.039465,5.03461865 114.66913,4.38076923 C115.298795,3.72691981 116.108353,3.4 117.097826,3.4 C118.0873,3.4 118.896857,3.72691981 119.526522,4.38076923 C120.156187,5.03461865 120.471014,5.84102085 120.471014,6.8 C120.471014,7.75897915 120.156187,8.56538135 119.526522,9.21923077 C118.896857,9.87308019 118.0873,10.2 117.097826,10.2 Z" id="Path-Copy-21" fill="#FFFFFF"></path>
                <path d="M107.460145,27.2 C106.470671,27.2 105.661114,26.8730802 105.031449,26.2192308 C104.401784,25.5653813 104.086957,24.7589792 104.086957,23.8 C104.086957,22.8410208 104.401784,22.0346187 105.031449,21.3807692 C105.661114,20.7269198 106.470671,20.4 107.460145,20.4 C108.449618,20.4 109.259176,20.7269198 109.888841,21.3807692 C110.518506,22.0346187 110.833333,22.8410208 110.833333,23.8 C110.833333,24.7589792 110.518506,25.5653813 109.888841,26.2192308 C109.259176,26.8730802 108.449618,27.2 107.460145,27.2 Z" id="Path-Copy-22" fill="#C91432"></path>
                <path d="M113.597984,34 C112.834253,34 112.223278,33.9558738 111.76504,33.8676201 C111.306801,33.7793664 110.892211,33.669051 110.521256,33.5366704 L111.50319,29.3667045 C111.74322,29.4328947 111.950515,29.4825367 112.125082,29.5156318 C112.299649,29.548727 112.485124,29.5652743 112.681512,29.5652743 C113.270675,29.5652743 113.690721,29.3832538 113.941661,29.0192073 C114.192601,28.6551608 114.318069,28.020847 114.318069,27.1162467 L114.318069,11.230662 L119.947826,11.230662 L119.947826,26.9176768 C119.947826,27.8443406 119.849634,28.73238 119.653246,29.5818218 C119.456858,30.4312635 119.113184,31.1869244 118.622215,31.8488271 C118.131245,32.5107297 117.476629,33.0347282 116.658346,33.4208381 C115.840063,33.806948 114.819953,34 113.597984,34 Z" id="Path-Copy-18" fill="#FFFFFF"></path>
                <path d="M126.154007,27.389547 C125.130302,27.389547 124.047963,27.185367 122.906959,26.7770008 C121.765954,26.3686346 120.779586,25.8205725 119.947826,25.1327978 L122.379113,21.7154347 C123.829362,22.7900826 125.130301,23.3273985 126.281969,23.3273985 C126.857803,23.3273985 127.268346,23.2468011 127.513608,23.0856039 C127.758871,22.9244067 127.8815,22.6826146 127.8815,22.3602202 C127.8815,22.1452907 127.796193,21.9572301 127.625575,21.7960329 C127.454958,21.6348358 127.225694,21.4843873 126.937777,21.3446831 C126.64986,21.2049789 126.324625,21.0706499 125.962063,20.9416922 C125.599501,20.8127344 125.215617,20.662286 124.810401,20.4903423 C124.341203,20.2969057 123.86668,20.0658599 123.386818,19.7971979 C122.906956,19.528536 122.475087,19.2007733 122.091198,18.8139 C121.707308,18.4270268 121.392737,17.9810546 121.147474,17.4759702 C120.902212,16.9708857 120.779582,16.3852114 120.779582,15.7189297 C120.779582,14.9236903 120.934202,14.203687 121.243446,13.5588983 C121.552691,12.9141096 121.98456,12.3660474 122.539066,11.9146953 C123.093573,11.4633432 123.760038,11.1140879 124.53848,10.8669189 C125.316923,10.6197499 126.175329,10.4961672 127.113725,10.4961672 C128.436011,10.4961672 129.571667,10.7164668 130.520727,11.1570724 C131.469787,11.597678 132.296203,12.0866354 133,12.6239594 L130.568713,15.9123653 C129.992879,15.4825062 129.427717,15.1493704 128.87321,14.9129478 C128.318703,14.6765253 127.796195,14.5583158 127.305669,14.5583158 C126.367273,14.5583158 125.898082,14.8592127 125.898082,15.4610155 C125.898082,15.6759451 125.978058,15.8586325 126.138012,16.0090832 C126.297965,16.1595339 126.516566,16.299236 126.793819,16.4281937 C127.071073,16.5571515 127.390976,16.6807341 127.753538,16.7989454 C128.1161,16.9171567 128.499984,17.0514856 128.9052,17.2019363 C129.374398,17.37388 129.854253,17.5888063 130.344778,17.8467218 C130.835304,18.1046373 131.277836,18.4216537 131.672389,18.7977804 C132.066942,19.1739072 132.386845,19.6252525 132.632108,20.1518299 C132.877371,20.6784074 133,21.3070669 133,22.0378275 C133,22.790081 132.850712,23.4939648 132.552131,24.1495 C132.253551,24.8050352 131.81635,25.37459 131.240516,25.8581815 C130.664682,26.341773 129.950232,26.7178941 129.097144,26.9865561 C128.244057,27.2552181 127.263021,27.389547 126.154007,27.389547 Z" id="Path-Copy-20" fill="#FFFFFF"></path>
                <path d="M16.7571429,0 L33.8406832,0 C43.0953977,-1.70006346e-15 50.5978261,7.50242841 50.5978261,16.7571429 C50.5978261,26.0118573 43.0953977,33.5142857 33.8406832,33.5142857 L16.7571429,33.5142857 C7.50242841,33.5142857 1.13337564e-15,26.0118573 0,16.7571429 C-1.13337564e-15,7.50242841 7.50242841,1.70006346e-15 16.7571429,0 Z M17.189234,6.31428571 C11.4218032,6.31428571 6.74637681,10.9897121 6.74637681,16.7571429 C6.74637681,22.5245736 11.4218032,27.2 17.189234,27.2 L18.3115942,27.2 L18.3115942,31.3213664 L23.2230998,27.2 L33.4085921,27.2 C39.1760229,27.2 43.8514493,22.5245736 43.8514493,16.7571429 C43.8514493,10.9897121 39.1760229,6.31428571 33.4085921,6.31428571 L17.189234,6.31428571 Z" id="Combined-Shape" fill="#FFFFFF" fill-rule="nonzero"></path>
                <ellipse id="Oval-Copy-6" fill="#FFFFFF" fill-rule="nonzero" cx="15.6612319" cy="16.7571429" rx="3.13224638" ry="3.15714286"></ellipse>
                <ellipse id="Oval-Copy-7" fill="#FFFFFF" fill-rule="nonzero" cx="25.298913" cy="16.7571429" rx="3.13224638" ry="3.15714286"></ellipse>
                <ellipse id="Oval-Copy-8" fill="#FFFFFF" fill-rule="nonzero" cx="34.9365942" cy="16.7571429" rx="3.13224638" ry="3.15714286"></ellipse>
                <polygon id="Rectangle" fill="#C91432" fill-rule="nonzero" points="27.4452654 1.61699225e-13 32.2641059 1.61699225e-13 27.4673913 6.31428571 22.6485507 6.31428571"></polygon>
            </g>
        </g>
    </g>
</svg>