<?xml version="1.0" encoding="UTF-8"?>
<svg width="160px" height="160px" viewBox="0 0 160 160" version="1.1" xmlns="http://www.w3.org/2000/svg" xmlns:xlink="http://www.w3.org/1999/xlink">
    <!-- Generator: Sketch 52.2 (67145) - http://www.bohemiancoding.com/sketch -->
    <title>Artboard Copy 2</title>
    <desc>Created with Sketch.</desc>
    <defs>
        <radialGradient cx="50%" cy="50%" fx="50%" fy="50%" r="80.6399022%" gradientTransform="translate(0.500000,0.500000),scale(0.654283,1.000000),translate(-0.500000,-0.500000)" id="radialGradient-1">
            <stop stop-color="#494DF4" offset="0%"></stop>
            <stop stop-color="#00008F" offset="100%"></stop>
        </radialGradient>
    </defs>
    <g id="Artboard-Copy-2" stroke="none" stroke-width="1" fill="none" fill-rule="evenodd">
        <g id="Group" transform="translate(38.000000, 83.000000)">
            <path d="M10.8850421,5.44212356 L10.8850421,0.794449278 L22.2780345,0.794449278 L22.2780345,28.9896595 L11.5130947,28.9896595 L9.13171411,24.3310912 L9.13171411,28.9896595 L-2.26127828,28.9896595 L-2.26127828,0.794449278 L8.50103785,0.794449278 L10.8850421,5.44212356 Z" id="Path-Copy-13" stroke="#FFFFFF" stroke-width="5.46992497"></path>
            <path d="M32.8979054,23.9551348 L35.1974676,23.9551348 L35.4151678,23.7374346 L35.1974676,23.5197345 L32.8979054,23.5197345 L32.8979054,23.9551348 Z M29.9508398,18.4852098 L38.3678304,18.4852098 L38.3678304,28.9896595 L18.5958646,28.9896595 L18.5958646,0.794449278 L29.9508398,0.794449278 L29.9508398,18.4852098 Z" id="Path-Copy-14" stroke="#FFFFFF" stroke-width="5.46992497"></path>
            <path d="M46.5212115,21.7847309 L46.5212115,28.9896595 L35.06203,28.9896595 L35.06203,0.794449278 L46.0844522,0.794449278 C47.5084931,0.794449278 48.8773174,0.937327864 50.1881057,1.22522155 C51.6522532,1.54679812 52.9674676,2.11273929 54.1114863,2.92636064 C55.3083775,3.77758465 56.2629672,4.89438417 56.9590923,6.2434974 C57.6737668,7.62856027 58.0122271,9.24867058 58.0122271,11.0811989 C58.0122271,12.8814388 57.6764675,14.4964617 56.9767999,15.9014519 C56.2950515,17.2704587 55.3621512,18.418898 54.1908452,19.3172615 C53.0787362,20.1702223 51.8071918,20.8008728 50.3940827,21.2084062 C49.1466273,21.5681658 47.8536687,21.7599384 46.5212115,21.7847309 Z M46.8884176,10.7668233 L46.8884176,7.97841088 L44.1534551,7.97841088 L44.1534551,10.7133734 L46.1447543,10.7133734 C46.4653905,10.7133734 46.7116049,10.7357565 46.8884176,10.7668233 Z M46.9783922,10.7846332 C47.085214,10.8084329 47.1580446,10.8353006 47.1986394,10.8604459 C47.0742855,10.7641733 46.9929793,10.6580548 46.9557545,10.5713319 C46.9664619,10.6230689 46.9746736,10.6878056 46.9783922,10.7846332 Z M47.1986394,10.8604459 C47.2021324,10.8626096 47.2053868,10.8647606 47.2084037,10.8668957 C47.1993532,10.8604903 47.1904652,10.8539102 47.1817492,10.847178 Z M46.923531,11.439894 C46.9172443,11.4558765 46.9111501,11.4668421 46.9056878,11.4737129 C46.9402351,11.4394621 46.9567782,11.4287201 46.931101,11.4373852 C46.9286087,11.4382263 46.9260854,11.4390626 46.923531,11.439894 Z M46.9056878,11.4737129 C46.9047067,11.474947 46.903746,11.4760491 46.9028081,11.4770243 C46.9056216,11.4740985 46.9083538,11.4713215 46.9109832,11.4686938 Z M46.8884176,11.4504607 C46.7554247,11.4874915 46.5535427,11.5124926 46.2820853,11.5124926 L44.1534551,11.5124926 L44.1534551,14.2474551 L46.8884176,14.2474551 L46.8884176,11.4504607 Z" id="Combined-Shape" stroke="#FFFFFF" stroke-width="5.46992497"></path>
            <path d="M65.643571,10.2545703 C63.8482073,10.2545703 62.2566103,9.62877213 61.0377911,8.39647628 C59.8353453,7.18073499 59.2124059,5.62716101 59.2124059,3.89215686 C59.2124059,2.15715272 59.8353453,0.603578731 61.0377911,-0.612162558 C62.2566103,-1.8444584 63.8482073,-2.4702566 65.643571,-2.4702566 C67.4389346,-2.4702566 69.0305316,-1.8444584 70.2493508,-0.612162558 C71.4517966,0.603578731 72.074736,2.15715272 72.074736,3.89215686 C72.074736,5.62716101 71.4517966,7.18073499 70.2493508,8.39647628 C69.0305316,9.62877213 67.4389346,10.2545703 65.643571,10.2545703 Z" id="Path-Copy-21" stroke="#FFFFFF" stroke-width="5.46992497"></path>
            <path d="M55.7638717,28.7545703 C53.968508,28.7545703 52.3769111,28.1287721 51.1580918,26.8964763 C49.9556461,25.680735 49.3327067,24.127161 49.3327067,22.3921569 C49.3327067,20.6571527 49.9556461,19.1035787 51.1580918,17.8878374 C52.3769111,16.6555416 53.968508,16.0297434 55.7638717,16.0297434 C57.5592354,16.0297434 59.1508323,16.6555416 60.3696516,17.8878374 C61.5720973,19.1035787 62.1950367,20.6571527 62.1950367,22.3921569 C62.1950367,24.127161 61.5720973,25.680735 60.3696516,26.8964763 C59.1508323,28.1287721 57.5592354,28.7545703 55.7638717,28.7545703 Z" id="Path-Copy-22" stroke="#FFFFFF" stroke-width="5.46992497"></path>
            <path d="M62.009841,30.5281657 C61.3358969,30.52762 60.8304405,30.4917983 60.5210984,30.4337902 C60.147388,30.3637119 59.8239067,30.2799061 59.5517938,30.1853565 L59.2605146,31.0236553 C59.4953201,31.0827094 59.7126298,31.1309286 59.9150818,31.1682993 C60.2744821,31.2346412 60.6435405,31.2666999 61.0212555,31.2666999 C61.3028774,31.2666999 61.5785391,31.2464114 61.8460929,31.2052361 L62.009841,30.5281657 Z M60.0795659,25.5818856 L60.0795659,6.23562575 L71.7183495,6.23562575 L71.7183495,25.7070227 C71.7183495,26.9053527 71.5866846,28.0647488 71.3215723,29.1812423 C71.0191116,30.4550254 70.4790407,31.6112415 69.7063996,32.6254442 C68.8889697,33.6984387 67.8139221,34.5363118 66.520686,35.1304574 C65.234116,35.7215403 63.7332238,35.998097 62.0254883,35.998097 C61.0335297,35.998097 60.2054533,35.9398665 59.5129471,35.8100073 C58.8824196,35.6917705 58.2973184,35.5401857 57.7564769,35.3522624 L55.4124952,34.5378117 L57.7309739,24.9512995 L60.0795659,25.5818856 Z" id="Path-Copy-18" stroke="#FFFFFF" stroke-width="5.46992497"></path>
            <path d="M69.8804407,18.5218587 C69.3246924,17.9396418 68.8626306,17.2795599 68.4986317,16.5496988 C68.0320407,15.6141286 67.808021,14.5723993 67.808021,13.4545043 C67.808021,12.1973992 68.0686602,11.015674 68.5978034,9.94144578 C69.1163367,8.88875706 69.8477426,7.98501678 70.7722174,7.25234226 C71.6554025,6.55239112 72.6883693,6.02533151 73.8540287,5.66496311 C74.9786517,5.3172813 76.1906388,5.14739045 77.4836798,5.14739045 C79.3004288,5.14739045 80.9254598,5.45431805 82.3434634,6.09529325 C83.5549313,6.64290883 84.6294812,7.26193117 85.5652473,7.95753733 L87.7827581,9.60593455 L84.0704006,14.4947813 C84.1615951,14.5729262 84.2512926,14.6529277 84.3394743,14.734777 C85.0276871,15.3735684 85.5824319,16.1356322 85.9976993,17.003725 C86.4539803,17.9575544 86.6685823,19.0287325 86.6685823,20.1961196 C86.6685823,21.3952606 86.4187726,22.5420734 85.9201655,23.6079338 C85.416779,24.6840109 84.6809157,25.6173924 83.7369066,26.3892994 C82.8174234,27.1411518 81.7185041,27.704438 80.4588142,28.0907015 C79.2485275,28.4618164 77.9058752,28.6408175 76.4320591,28.6408175 C74.9899867,28.6408175 73.5025849,28.3676142 71.9740927,27.8349751 C70.4369325,27.2993154 69.0798123,26.5651113 67.9164314,25.6284613 L65.8835762,23.9917884 L69.8804407,18.5218587 Z" id="Path-Copy-20" stroke="#FFFFFF" stroke-width="5.46992497"></path>
            <path d="M0.473684211,26.254697 L0.473684211,3.52941176 L6.8301468,3.52941176 L12.0308889,13.6683852 L14.2700973,18.7728339 L14.4145624,18.7728339 C14.3423295,18.1668232 14.258059,17.5025523 14.1617485,16.7800012 C14.065438,16.05745 13.9811676,15.3174289 13.9089347,14.5599156 C13.8367018,13.8024023 13.7704893,13.0449004 13.7102952,12.2873871 C13.6501011,11.5298738 13.6200046,10.8015065 13.6200046,10.1022635 L13.6200046,3.52941176 L19.543072,3.52941176 L19.543072,26.254697 L13.1866094,26.254697 L7.98586727,16.0807616 L5.74665885,11.0112749 L5.6021938,11.0112749 C5.74665958,12.3165286 5.91520046,13.7383014 6.1078215,15.2766361 C6.30044254,16.8149708 6.39675162,18.2833592 6.39675162,19.6818453 L6.39675162,26.254697 L0.473684211,26.254697 Z" id="Path-Copy-13" fill="#00008F"></path>
            <polygon id="Path-Copy-14" fill="#00008F" points="21.3308271 26.254697 21.3308271 3.52941176 27.2158774 3.52941176 27.2158774 21.2201723 35.6328679 21.2201723 35.6328679 26.254697"></polygon>
            <path d="M37.7969925,26.254697 L37.7969925,3.52941176 L46.0844522,3.52941176 C47.3148095,3.52941176 48.4871135,3.65177746 49.6013993,3.89651253 C50.7156852,4.14124759 51.6906707,4.56078712 52.5263851,5.15514371 C53.3620995,5.74950029 54.0295003,6.53030998 54.5286075,7.49759619 C55.0277147,8.46488239 55.2772646,9.65940467 55.2772646,11.0811989 C55.2772646,12.4796849 55.0277147,13.6800342 54.5286075,14.6822825 C54.0295003,15.6845309 53.3620995,16.5061291 52.5263851,17.1471019 C51.6906707,17.7880747 50.7272922,18.2658836 49.6362206,18.580543 C48.545149,18.8952024 47.4076659,19.0525297 46.2237372,19.0525297 L43.7862491,19.0525297 L43.7862491,26.254697 L37.7969925,26.254697 Z M44.1534551,14.2474551 L46.2820853,14.2474551 C47.4494045,14.2474551 48.3134366,13.9558745 48.8742076,13.3727047 C49.4349785,12.7895349 49.7153598,11.9633901 49.7153598,10.8942454 C49.7153598,9.82510072 49.4063682,9.07185101 48.7883757,8.63447364 C48.1703832,8.19709628 47.2891849,7.97841088 46.1447543,7.97841088 L44.1534551,7.97841088 L44.1534551,14.2474551 Z" id="Combined-Shape" fill="#00008F"></path>
            <path d="M65.643571,7.51960784 C64.5593461,7.51960784 63.6722664,7.17081797 62.9823051,6.47322775 C62.2923439,5.77563754 61.9473684,4.91528918 61.9473684,3.89215686 C61.9473684,2.86902455 62.2923439,2.00867619 62.9823051,1.31108597 C63.6722664,0.613495758 64.5593461,0.264705882 65.643571,0.264705882 C66.7277958,0.264705882 67.6148755,0.613495758 68.3048368,1.31108597 C68.994798,2.00867619 69.3397735,2.86902455 69.3397735,3.89215686 C69.3397735,4.91528918 68.994798,5.77563754 68.3048368,6.47322775 C67.6148755,7.17081797 66.7277958,7.51960784 65.643571,7.51960784 Z" id="Path-Copy-21" fill="#00008F"></path>
            <path d="M55.7638717,26.0196078 C54.6796469,26.0196078 53.7925671,25.670818 53.1026059,24.9732278 C52.4126446,24.2756375 52.0676692,23.4152892 52.0676692,22.3921569 C52.0676692,21.3690245 52.4126446,20.5086762 53.1026059,19.811086 C53.7925671,19.1134958 54.6796469,18.7647059 55.7638717,18.7647059 C56.8480965,18.7647059 57.7351763,19.1134958 58.4251375,19.811086 C59.1150988,20.5086762 59.4600742,21.3690245 59.4600742,22.3921569 C59.4600742,23.4152892 59.1150988,24.2756375 58.4251375,24.9732278 C57.7351763,25.670818 56.8480965,26.0196078 55.7638717,26.0196078 Z" id="Path-Copy-22" fill="#C91432"></path>
            <path d="M62.0254883,33.2631345 C61.1886235,33.2631345 60.5191416,33.2160564 60.0170227,33.1218988 C59.5149038,33.0277412 59.0606126,32.9100459 58.6541353,32.7688095 L59.7300991,28.3198838 C59.9931137,28.390502 60.2202594,28.4434649 60.4115427,28.478774 C60.6028261,28.5140831 60.8060617,28.5317374 61.0212555,28.5317374 C61.666837,28.5317374 62.1271057,28.3375402 62.4020756,27.94914 C62.6770455,27.5607398 62.8145284,26.883992 62.8145284,25.9188763 L62.8145284,8.97058824 L68.983387,8.97058824 L68.983387,25.7070227 C68.983387,26.6956778 68.8757917,27.6431247 68.6605979,28.5493919 C68.4454041,29.4556591 68.0688206,30.2618716 67.530836,30.9680538 C66.9928515,31.674236 66.2755495,32.2332886 65.3789086,32.6452282 C64.4822677,33.0571678 63.3644721,33.2631345 62.0254883,33.2631345 Z" id="Path-Copy-18" fill="#00008F"></path>
            <path d="M76.4320591,25.905855 C75.3103248,25.905855 74.1243423,25.6880159 72.8740759,25.2523311 C71.6238096,24.8166463 70.5429881,24.2319202 69.6315789,23.4981353 L72.2956846,19.8521597 C73.8848082,20.9986986 75.3103241,21.5719595 76.5722752,21.5719595 C77.2032508,21.5719595 77.6531062,21.4859704 77.9218551,21.3139895 C78.1906039,21.1420087 78.3249763,20.8840413 78.3249763,20.5400796 C78.3249763,20.3107718 78.2314999,20.1101305 78.0445441,19.9381497 C77.8575884,19.7661688 77.6063704,19.6056558 77.2908827,19.4566057 C76.9753949,19.3075556 76.6190159,19.1642404 76.221735,19.0266558 C75.8244541,18.8890711 75.4038101,18.728558 74.9597902,18.5451118 C74.445662,18.3387348 73.9256992,18.0922326 73.3998863,17.8055979 C72.8740733,17.5189632 72.4008488,17.169274 71.9801984,16.75652 C71.559548,16.343766 71.2148536,15.8679595 70.9461048,15.3290861 C70.6773559,14.7902128 70.5429835,14.1653585 70.5429835,13.4545043 C70.5429835,12.6060655 70.7124096,11.837896 71.0512668,11.1499726 C71.3901241,10.4620492 71.8633486,9.87732314 72.4709547,9.39577678 C73.0785608,8.91423042 73.8088456,8.54161086 74.661831,8.2779069 C75.5148165,8.01420294 76.4554233,7.88235294 77.4836798,7.88235294 C78.9325866,7.88235294 80.1769919,8.1173899 81.2169331,8.58747087 C82.2568743,9.05755183 83.1624274,9.57921923 83.9336198,10.1524887 L81.2695141,13.6608803 C80.6385386,13.2022647 80.0192571,12.846843 79.411651,12.5946044 C78.8040449,12.3423659 78.2315016,12.2162485 77.6940039,12.2162485 C76.6657475,12.2162485 76.151627,12.5372746 76.151627,13.1793364 C76.151627,13.4086442 76.2392611,13.6035529 76.4145321,13.7640683 C76.5898031,13.9245838 76.8293365,14.0736316 77.1331396,14.2112163 C77.4369426,14.3488009 77.7874793,14.4806509 78.1847602,14.6067702 C78.5820411,14.7328895 79.0026852,14.8762047 79.446705,15.0367202 C79.9608332,15.2201664 80.4866383,15.4494708 81.024136,15.7246401 C81.5616337,15.9998095 82.0465428,16.3380334 82.4788779,16.739322 C82.911213,17.1406106 83.2617497,17.6221498 83.5304985,18.1839538 C83.7992474,18.7457579 83.9336198,19.4164732 83.9336198,20.1961196 C83.9336198,20.9986969 83.770036,21.7496686 83.4428635,22.4490574 C83.115691,23.1484461 82.6366241,23.7561027 82.0056486,24.2720452 C81.374673,24.7879877 80.5918077,25.1892703 79.6570291,25.4759051 C78.7222505,25.7625398 77.6472713,25.905855 76.4320591,25.905855 Z" id="Path-Copy-20" fill="#00008F"></path>
        </g>
        <g id="Group-2" transform="translate(53.000000, 43.000000)" fill-rule="nonzero">
            <rect id="Rectangle" fill="#FFFFFF" x="7.68421053" y="7.61764706" width="40.6165414" height="22.8529412"></rect>
            <rect id="Combined-Shape" stroke="#FFFFFF" stroke-width="5.46992497" fill="#FFFFFF" x="-2.73496249" y="-2.73496249" width="60.357143" height="41.3816897" rx="20.6908448"></rect>
            <path d="M17.9558824,3.90798505e-14 L36.9313357,4.61852778e-14 C46.8480957,4.43635986e-14 54.887218,8.03912236 54.887218,17.9558824 C54.887218,27.8726423 46.8480957,35.9117647 36.9313357,35.9117647 L17.9558824,35.9117647 C8.03912236,35.9117647 -9.11561028e-14,27.8726423 -9.23705556e-14,17.9558824 C-9.35850085e-14,8.03912236 8.03912236,4.09015297e-14 17.9558824,3.90798505e-14 Z M18.5081934,6.76598465 C12.3281836,6.76598465 7.31829574,11.7758725 7.31829574,17.9558824 C7.31829574,24.1358922 12.3281836,29.1457801 18.5081934,29.1457801 L19.8639456,29.1457801 L19.8639456,33.5619726 L25.1918204,29.1457801 L36.3790246,29.1457801 C42.5590345,29.1457801 47.5689223,24.1358922 47.5689223,17.9558824 C47.5689223,11.7758725 42.5590345,6.76598465 36.3790246,6.76598465 L18.5081934,6.76598465 Z" id="Combined-Shape" fill="url(#radialGradient-1)"></path>
            <ellipse id="Oval-Copy-6" fill="#00008F" cx="16.5707125" cy="17.5300512" rx="3.39778016" ry="3.38299233"></ellipse>
            <ellipse id="Oval-Copy-7" fill="#00008F" cx="27.5481561" cy="17.5300512" rx="3.39778016" ry="3.38299233"></ellipse>
            <ellipse id="Oval-Copy-8" fill="#00008F" cx="37.4278554" cy="17.5300512" rx="3.39778016" ry="3.38299233"></ellipse>
            <polygon id="Rectangle" fill="#C91432" points="29.3537284 2.18058024e-13 34.5810825 2.18058024e-13 29.37773 6.76598465 24.1503759 6.76598465"></polygon>
        </g>
    </g>
</svg>